<svg xmlns="http://www.w3.org/2000/svg" version="1.0" width="694.000000pt" height="1154.000000pt" viewBox="0 0 694.000000 1154.000000" preserveAspectRatio="xMidYMid meet">

<g transform="translate(0.000000,1154.000000) scale(0.100000,-0.100000)" fill="#ff0f00" stroke="none">
<path d="M3421 11493 c-25 -97 -36 -156 -52 -268 -4 -33 -12 -82 -17 -110 -6 -27 -17 -90 -27 -140 -9 -49 -22 -95 -28 -102 -9 -9 -23 -6 -59 15 -25 15 -73 42 -105 61 -32 18 -67 42 -79 52 -31 28 -132 88 -138 81 -12 -11 -5 -42 15 -79 12 -21 33 -58 47 -83 13 -25 30 -52 36 -60 6 -8 19 -28 28 -45 77 -142 95 -177 120 -225 15 -30 28 -67 28 -82 0 -15 4 -38 10 -52 6 -16 10 -676 12 -1773 3 -1865 4 -1808 -44 -1782 -47 25 -286 225 -393 330 -69 67 -213 198 -343 313 -77 68 -192 173 -448 409 -100 92 -197 180 -216 195 -18 15 -60 54 -93 87 -33 33 -76 73 -95 88 -19 16 -49 42 -66 59 -17 16 -43 31 -58 32 -33 4 -57 25 -100 90 -34 51 -124 142 -181 185 -16 13 -64 55 -106 94 -42 40 -108 100 -148 135 -87 77 -90 95 -32 193 21 37 41 77 44 91 4 13 18 40 31 59 25 33 35 51 63 116 7 18 18 35 23 38 10 6 40 64 40 77 0 5 16 29 36 53 20 25 52 75 71 112 20 37 49 87 65 111 16 24 53 87 81 140 27 53 70 126 95 162 25 36 57 88 71 115 15 28 39 69 54 92 15 24 27 45 27 48 0 4 14 26 30 50 17 24 30 47 30 50 0 4 12 26 28 49 15 22 49 84 76 136 27 52 53 101 59 109 19 23 97 165 97 176 0 29 -159 -115 -429 -390 -91 -93 -449 -453 -794 -801 -346 -347 -637 -644 -648 -660 -41 -63 -48 -55 396 -469 187 -175 412 -392 640 -617 110 -108 214 -207 230 -220 17 -12 31 -26 33 -30 2 -3 58 -57 125 -118 67 -62 163 -152 214 -201 51 -49 99 -89 107 -89 8 0 27 -16 43 -35 89 -109 133 -156 278 -294 88 -84 223 -213 300 -286 77 -74 174 -163 215 -198 91 -79 260 -260 260 -279 0 -7 -30 -44 -67 -83 -164 -174 -270 -281 -293 -296 -39 -26 -174 -159 -206 -204 -34 -46 -154 -166 -234 -233 -30 -25 -120 -110 -200 -188 -80 -78 -215 -206 -300 -284 -85 -79 -317 -303 -515 -500 -198 -196 -367 -361 -377 -366 -9 -5 -90 -81 -180 -169 -89 -88 -181 -175 -203 -193 -22 -19 -100 -92 -172 -164 -109 -106 -133 -135 -133 -158 0 -23 18 -46 92 -117 51 -48 110 -106 133 -128 22 -22 110 -105 195 -185 85 -80 185 -175 223 -213 38 -37 74 -67 80 -67 20 0 34 14 38 35 3 13 14 21 32 23 15 2 32 13 38 24 8 15 18 19 37 15 15 -3 38 0 51 8 14 7 31 11 38 8 7 -3 20 2 29 12 15 15 18 15 36 -2 14 -12 18 -26 14 -44 -3 -17 0 -32 9 -39 12 -10 15 -9 15 6 1 19 22 54 34 54 3 0 6 -13 6 -28 0 -16 9 -37 19 -46 10 -9 22 -32 25 -49 16 -77 17 -95 7 -101 -6 -4 -11 -18 -11 -31 0 -13 -9 -30 -20 -38 -17 -12 -20 -25 -19 -83 1 -92 19 -128 74 -151 39 -16 43 -20 38 -44 -5 -24 28 -60 343 -371 192 -190 389 -380 437 -422 49 -43 133 -122 187 -175 54 -53 108 -105 120 -117 13 -12 49 -48 81 -80 171 -174 844 -831 862 -841 32 -18 57 -16 57 5 0 12 7 9 25 -15 16 -20 31 -30 40 -26 11 4 15 -2 15 -20 0 -33 25 -51 66 -49 37 3 39 0 24 -28 -14 -26 10 -43 43 -31 21 8 96 79 203 192 7 6 46 45 88 86 71 70 90 103 66 118 -5 3 -10 14 -10 23 0 9 -16 31 -35 47 -34 30 -58 85 -36 85 6 0 11 -4 11 -10 0 -22 29 -8 54 25 15 19 34 35 42 35 18 0 18 11 -1 36 -19 26 -19 47 3 67 42 40 91 77 101 77 6 0 11 9 11 19 0 35 22 35 49 2 27 -33 49 -38 83 -20 27 15 38 -2 38 -58 0 -30 4 -43 14 -43 15 0 126 94 168 143 33 38 34 50 8 86 -25 36 -24 111 2 111 9 0 20 -5 23 -10 12 -20 26 2 20 31 -6 25 -3 29 21 35 39 10 78 -17 82 -55 2 -17 5 -31 7 -31 5 0 102 89 176 163 27 26 50 53 51 60 0 6 2 17 3 22 2 6 3 16 4 23 1 7 15 12 34 12 27 0 48 14 119 78 94 84 248 246 248 261 0 5 9 12 19 16 26 8 32 27 15 50 -14 19 -15 19 -20 -3 -7 -24 -15 -27 -31 -11 -8 8 -17 8 -33 -1 -19 -10 -21 -18 -17 -46 8 -47 -16 -56 -49 -21 -25 27 -54 27 -54 1 0 -8 -7 -14 -15 -14 -9 0 -15 9 -15 22 0 27 -47 78 -66 71 -19 -7 -19 46 -1 72 16 21 34 13 47 -21 11 -29 37 -22 51 12 12 34 29 29 29 -8 l1 -33 20 27 c12 16 30 28 43 28 13 0 35 9 49 20 14 11 28 20 32 20 4 0 24 -18 45 -40 21 -22 45 -40 54 -40 9 0 59 42 112 94 74 73 95 99 93 117 -4 37 10 68 39 84 l27 14 -27 1 c-44 0 -31 29 20 45 16 4 29 1 42 -10 12 -11 20 -13 25 -6 3 6 15 11 26 11 12 0 155 136 384 366 l366 366 -7 35 c-9 46 12 61 42 32 l22 -20 143 138 c79 76 169 160 199 187 30 27 82 78 114 113 l60 65 -20 35 c-10 20 -59 73 -109 117 -49 45 -155 144 -235 222 -80 77 -161 153 -180 168 -19 16 -153 145 -298 287 -144 142 -267 259 -272 259 -6 0 -10 -6 -11 -12 0 -7 -9 5 -19 27 -23 52 -27 56 -473 475 -44 41 -150 143 -236 226 -86 83 -194 186 -241 230 -47 43 -144 138 -216 209 -72 72 -184 181 -250 243 -174 165 -334 340 -334 364 0 27 94 125 273 286 75 68 137 128 137 132 0 5 28 30 63 56 34 27 188 174 342 329 261 260 483 474 615 590 103 90 385 360 555 530 93 94 267 261 385 370 393 366 500 472 500 498 0 6 -70 81 -155 167 -85 86 -155 160 -155 166 0 9 -75 85 -216 216 -57 53 -76 66 -94 61 -20 -5 -22 -3 -17 16 7 29 -13 52 -253 288 -107 105 -205 202 -218 215 -456 465 -638 648 -644 648 -4 0 -35 28 -69 63 -50 49 -63 58 -67 44 -2 -10 4 -29 12 -42 9 -14 39 -69 67 -122 28 -54 59 -109 69 -123 9 -14 25 -43 35 -65 10 -22 25 -48 33 -57 8 -9 24 -36 37 -60 39 -75 77 -142 112 -195 18 -28 33 -54 33 -58 0 -3 8 -18 19 -33 28 -41 121 -201 121 -209 0 -3 6 -14 14 -22 7 -9 28 -43 46 -76 18 -33 38 -67 44 -75 7 -8 25 -40 40 -70 16 -30 49 -84 74 -120 25 -36 53 -83 64 -105 30 -63 70 -136 110 -201 46 -74 118 -226 118 -247 0 -8 -41 -53 -91 -99 -92 -83 -156 -142 -345 -314 -54 -50 -119 -108 -144 -130 -25 -21 -131 -119 -236 -216 -105 -98 -204 -188 -220 -200 -16 -13 -40 -35 -52 -51 -13 -15 -67 -66 -120 -113 -54 -48 -133 -121 -177 -163 -44 -42 -107 -98 -140 -126 -32 -27 -93 -81 -135 -120 -42 -38 -105 -95 -140 -127 -36 -31 -119 -104 -185 -163 -66 -59 -138 -121 -160 -137 -22 -16 -56 -44 -75 -61 -65 -60 -130 -109 -131 -101 -8 51 -10 219 -14 962 l-4 863 -31 35 c-17 19 -28 40 -24 45 4 7 10 7 17 0 28 -28 37 -11 37 69 0 73 -2 83 -25 106 -19 19 -22 26 -10 30 8 3 18 3 23 0 12 -7 20 186 14 338 -4 92 -7 113 -18 109 -8 -3 -14 1 -14 11 0 19 -2 19 -33 5 -21 -9 -31 -7 -66 16 -22 15 -41 34 -41 41 0 25 39 54 73 54 40 0 71 20 85 57 7 18 13 169 15 403 4 297 8 387 21 435 8 33 15 70 16 83 0 24 12 51 73 165 21 37 37 78 37 92 0 18 5 25 19 25 11 0 23 9 26 21 4 12 25 49 46 82 46 70 49 92 14 101 -34 9 -53 -2 -211 -113 -23 -16 -51 -32 -62 -35 -11 -4 -26 -13 -32 -21 -21 -25 -40 -18 -40 16 0 34 -27 164 -40 194 -5 11 -11 43 -14 70 -8 83 -38 255 -55 315 -22 79 -22 80 -51 80 -24 0 -29 -5 -39 -47z m301 -6084 c42 -22 138 -105 401 -344 61 -55 140 -124 176 -154 36 -29 100 -86 141 -126 41 -40 82 -76 91 -81 9 -5 70 -59 135 -120 190 -177 343 -316 388 -352 22 -19 66 -57 96 -86 30 -29 96 -91 145 -137 50 -46 150 -140 223 -207 73 -68 151 -140 175 -159 23 -20 98 -89 165 -155 68 -66 135 -123 149 -129 31 -12 26 -30 -15 -49 -18 -9 -141 -124 -275 -256 -133 -132 -267 -262 -297 -289 -149 -134 -644 -609 -925 -890 -94 -93 -202 -200 -240 -237 -39 -36 -79 -81 -90 -99 -11 -19 -30 -39 -43 -45 -27 -13 -82 -64 -82 -76 0 -14 35 -50 58 -59 30 -12 29 -39 -2 -39 -27 0 -41 -14 -30 -31 4 -8 9 -8 17 0 6 6 26 11 44 11 32 0 33 -1 33 -45 0 -26 9 -63 20 -84 18 -36 18 -40 3 -52 -9 -8 -26 -12 -38 -11 -33 5 -39 -13 -10 -32 29 -19 34 -62 8 -81 -14 -11 -15 -16 -3 -44 10 -25 10 -35 1 -44 -10 -9 -15 -8 -25 6 -16 21 -49 22 -65 3 -9 -11 -34 -14 -89 -14 -42 1 -71 3 -64 6 14 5 42 66 42 93 0 11 5 19 10 19 6 0 10 -7 10 -15 0 -8 9 -15 20 -15 18 0 19 3 9 21 -11 21 -9 21 24 15 30 -6 36 -4 42 14 11 35 -3 69 -30 76 -32 8 -55 40 -55 78 0 35 -16 24 -22 -13 -5 -40 -30 -39 -28 0 4 66 2 73 -16 58 -12 -10 -14 -23 -10 -51 4 -21 2 -38 -3 -38 -16 0 -52 53 -47 67 7 18 -10 16 -46 -4 -16 -10 -39 -35 -49 -56 -28 -54 -43 -46 -69 37 -10 30 -10 40 0 46 18 11 2 50 -26 60 -29 11 -31 30 -4 37 29 8 24 30 -11 48 -58 30 -56 91 3 97 21 2 33 9 37 23 3 11 9 711 13 1555 4 844 9 1562 11 1595 2 33 5 206 7 384 4 321 3 324 -18 348 -12 14 -22 27 -22 29 0 8 32 4 52 -7z m-518 -86 c3 -49 10 -118 16 -156 5 -37 10 -194 10 -350 1 -155 5 -302 9 -326 5 -25 20 -54 34 -69 28 -27 25 -29 42 24 10 31 25 2 25 -47 0 -55 -13 -89 -34 -89 -7 0 -25 -9 -39 -20 l-25 -20 5 -481 4 -482 25 -32 c36 -48 31 -74 -8 -38 -17 16 -18 10 -19 -148 -3 -616 0 -768 16 -798 21 -42 20 -127 -4 -157 -17 -21 -18 -41 -16 -226 2 -112 4 -251 4 -310 l1 -108 29 0 c31 0 49 -14 31 -25 -5 -3 -10 -28 -10 -55 0 -48 -21 -87 -41 -75 -15 10 -10 -22 6 -35 17 -14 20 -50 5 -50 -5 0 -10 6 -10 13 0 6 -5 4 -11 -6 -6 -10 -8 -35 -4 -56 10 -57 -13 -69 -52 -28 -16 18 -56 46 -88 62 -37 19 -66 43 -81 67 -13 21 -47 55 -74 77 -66 52 -376 349 -760 727 -168 166 -363 355 -435 421 -71 67 -143 135 -160 153 -33 36 -155 136 -197 163 -16 10 -28 23 -28 30 0 35 -110 97 -170 97 -20 0 -45 6 -55 14 -17 12 -15 14 19 20 35 7 37 9 31 34 -5 22 -152 189 -229 261 -14 14 -26 34 -26 46 0 14 45 64 134 150 162 158 429 404 511 473 33 27 104 93 158 145 53 53 117 110 142 128 25 18 45 35 45 39 0 4 48 49 108 100 59 52 145 131 192 175 47 44 116 108 155 140 38 33 108 96 156 140 102 95 215 196 409 365 79 69 164 144 189 167 25 24 49 43 53 43 3 0 9 -39 12 -87z" fill="#ff0f00"/>
<path d="M4080 1241 c0 -11 5 -23 10 -26 6 -3 10 3 10 14 0 11 -4 23 -10 26 -5 3 -10 -3 -10 -14z" fill="#ff0f00"/>
<path d="M900 2685 c0 -12 -6 -15 -20 -10 -28 9 -25 -7 10 -46 16 -19 30 -39 30 -45 0 -11 48 -60 52 -53 2 2 10 18 18 34 12 22 24 31 48 33 28 3 32 7 32 32 0 16 -4 32 -10 35 -5 3 -10 2 -10 -4 0 -20 -40 -33 -70 -22 -18 6 -32 6 -35 0 -13 -20 -26 -7 -23 23 2 19 -2 33 -9 35 -7 3 -13 -3 -13 -12z" fill="#ff0f00"/>
<path d="M4480 1045 c0 -8 5 -15 10 -15 6 0 10 7 10 15 0 8 -4 15 -10 15 -5 0 -10 -7 -10 -15z" fill="#ff0f00"/>
<path d="M4145 740 c-3 -5 -1 -10 4 -10 6 0 11 5 11 10 0 6 -2 10 -4 10 -3 0 -8 -4 -11 -10z" fill="#ff0f00"/>
</g>
</svg>